<svg width="48" height="31" viewBox="0 0 48 31" fill="none" xmlns="http://www.w3.org/2000/svg">
<path d="M0.0227273 24V0.727272H4.94318V19.9432H14.9205V24H0.0227273Z" fill="white"/>
<path d="M33.3267 30.7045C30.91 30.7045 28.7585 30.375 26.8722 29.7159C24.9858 29.0644 23.3911 28.1061 22.0881 26.8409C20.785 25.5833 19.7926 24.0455 19.1108 22.2273C18.429 20.4091 18.0881 18.3409 18.0881 16.0227C18.0881 13.7348 18.429 11.6591 19.1108 9.79545C19.8002 7.93182 20.804 6.33333 22.1222 5C23.4403 3.65909 25.0502 2.62879 26.9517 1.90909C28.8608 1.18939 31.035 0.829544 33.4744 0.829544C35.732 0.829544 37.7472 1.15909 39.5199 1.81818C41.3002 2.47727 42.8078 3.41667 44.0426 4.63636C45.285 5.84848 46.2282 7.29167 46.8722 8.96591C47.5237 10.6326 47.8456 12.4773 47.8381 14.5C47.8456 15.8939 47.7244 17.1742 47.4744 18.3409C47.2244 19.5076 46.8305 20.5265 46.2926 21.3977C45.7623 22.2614 45.0653 22.947 44.2017 23.4545C43.3381 23.9545 42.2926 24.2386 41.0653 24.3068C40.1866 24.375 39.4744 24.3106 38.929 24.1136C38.3835 23.9167 37.9669 23.625 37.679 23.2386C37.3987 22.8447 37.2169 22.3864 37.1335 21.8636H36.9972C36.8153 22.3182 36.4593 22.7311 35.929 23.1023C35.3987 23.4659 34.7509 23.75 33.9858 23.9545C33.2282 24.1515 32.4214 24.2235 31.5653 24.1705C30.6714 24.1174 29.8229 23.9091 29.0199 23.5455C28.2244 23.1818 27.5161 22.6553 26.8949 21.9659C26.2813 21.2765 25.7964 20.4242 25.4403 19.4091C25.0919 18.3939 24.9138 17.2197 24.9062 15.8864C24.9138 14.5682 25.0994 13.4205 25.4631 12.4432C25.8343 11.4659 26.3229 10.6439 26.929 9.97727C27.5426 9.31061 28.2244 8.78788 28.9744 8.40909C29.7244 8.0303 30.4782 7.78788 31.2358 7.68182C32.0919 7.55303 32.9025 7.55303 33.6676 7.68182C34.4328 7.81061 35.0767 8.01894 35.5994 8.30682C36.1297 8.5947 36.4593 8.9053 36.5881 9.23864H36.7472V7.96591H40.304V19.0568C40.3116 19.5795 40.429 19.9848 40.6562 20.2727C40.8835 20.5606 41.1903 20.7045 41.5767 20.7045C42.0994 20.7045 42.535 20.4735 42.8835 20.0114C43.2396 19.5492 43.5047 18.8409 43.679 17.8864C43.8608 16.9318 43.9517 15.7159 43.9517 14.2386C43.9517 12.8144 43.7623 11.5644 43.3835 10.4886C43.0123 9.4053 42.4896 8.48485 41.8153 7.72727C41.1487 6.96212 40.3722 6.34091 39.4858 5.86364C38.5994 5.38636 37.6373 5.03788 36.5994 4.81818C35.5691 4.59848 34.5085 4.48864 33.4176 4.48864C31.5313 4.48864 29.8835 4.77651 28.4744 5.35227C27.0653 5.92045 25.8911 6.7197 24.9517 7.75C24.0123 8.7803 23.3078 9.98864 22.8381 11.375C22.3759 12.7538 22.1411 14.2576 22.1335 15.8864C22.1411 17.6818 22.3911 19.2727 22.8835 20.6591C23.3835 22.0379 24.1184 23.197 25.0881 24.1364C26.0578 25.0758 27.2547 25.7879 28.679 26.2727C30.1032 26.7576 31.7396 27 33.5881 27C34.4593 27 35.3116 26.9356 36.1449 26.8068C36.9782 26.6856 37.732 26.5341 38.4062 26.3523C39.0805 26.178 39.6222 26.0076 40.0312 25.8409L41.1562 29.1364C40.679 29.4091 40.0313 29.6629 39.2131 29.8977C38.4025 30.1402 37.4858 30.3333 36.4631 30.4773C35.4479 30.6288 34.4025 30.7045 33.3267 30.7045ZM32.804 20.4318C33.7282 20.4318 34.4631 20.2538 35.0085 19.8977C35.5616 19.5417 35.9555 19.0152 36.1903 18.3182C36.4328 17.6136 36.5464 16.7462 36.5312 15.7159C36.5237 14.8068 36.4062 14.0379 36.179 13.4091C35.9593 12.7727 35.5767 12.2917 35.0312 11.9659C34.4934 11.6326 33.7434 11.4659 32.7812 11.4659C31.9403 11.4659 31.2244 11.6439 30.6335 12C30.0502 12.3561 29.6032 12.8561 29.2926 13.5C28.9896 14.1364 28.8343 14.8864 28.8267 15.75C28.8343 16.553 28.9631 17.3144 29.2131 18.0341C29.4631 18.7462 29.8759 19.3258 30.4517 19.7727C31.0275 20.2121 31.8116 20.4318 32.804 20.4318Z" fill="#4D2994"/>
</svg>
