<svg width="80" height="60" viewBox="0 0 80 60" fill="none" xmlns="http://www.w3.org/2000/svg">
<path fill-rule="evenodd" clip-rule="evenodd" d="M0.761841 25.0975C0.761841 25.5369 0.891216 25.8269 0.963716 26.1087C1.43622 27.9419 2.45184 29.515 3.65684 30.95C5.37309 32.995 7.47497 34.6412 9.62809 36.1894C11.4956 37.5319 13.4012 38.8444 15.2762 40.1769C15.5981 40.4056 15.9025 40.6687 16.2518 40.9494C15.9512 41.1119 15.7012 41.255 15.4412 41.3869C12.9668 42.6419 10.5862 44.0488 8.39184 45.7531C7.06934 46.7806 5.79059 47.8725 4.88747 49.2994C3.43434 51.5944 2.91997 54.0394 4.00309 56.65C4.31934 57.4125 4.80184 58.0713 5.48247 58.5581C5.70309 58.7156 5.95059 58.8719 6.20872 58.9331C6.86997 59.0887 7.54372 59.1906 8.21309 59.3138L10.1087 59.3125C12.205 59.1256 14.1131 58.4075 15.8375 57.2175C18.5325 55.3575 20.3481 52.8637 21.1287 49.6631C21.6962 47.3369 21.7193 45.0081 21.0506 42.6925C20.9887 42.4775 20.9106 42.2669 20.8293 42.0587C20.7481 41.8506 20.6525 41.6481 20.54 41.3888L24.8375 38.9175L24.9018 38.9725C24.8237 39.2281 24.7406 39.4831 24.67 39.7412C24.1593 41.6062 23.82 43.5038 23.9418 45.4394C24.0718 47.5019 24.6475 49.4325 25.855 51.1556C26.8312 52.5494 29.1575 52.6013 30.195 51.2025C30.5631 50.7056 30.92 50.1863 31.1881 49.6319C31.8887 48.185 32.5375 46.7125 33.2068 45.25L33.3237 44.9825C33.2756 45.675 33.2193 46.2831 33.1937 46.8919C33.1537 47.8425 33.2093 48.7875 33.5343 49.6919C33.8125 50.4656 34.2856 51.0438 35.1718 51.1456C35.7781 51.215 36.2612 50.9375 36.7068 50.5856C37.4031 50.0362 37.9687 49.3575 38.3887 48.5862C39.5768 46.4044 40.7968 44.2356 41.8737 41.9987C43.0387 39.5794 44.0575 37.0894 45.1393 34.6287L45.3181 34.1925C45.5737 35.1969 45.7518 36.1806 46.08 37.1119C46.4612 38.1925 46.9331 39.2475 47.4468 40.2731C47.69 40.7575 47.6618 41.0719 47.325 41.4781C45.915 43.1781 44.5293 44.8987 43.1425 46.6175C42.8356 46.9969 42.53 47.3831 42.2743 47.7975C42.12 48.0494 42.0175 48.3562 41.9743 48.65C41.8912 49.2112 42.2381 49.7525 42.8387 49.8819C43.3875 50 43.9718 50.0437 44.5312 50.0025C46.4668 49.86 48.2243 49.1806 49.7781 48.0294C51.7912 46.5381 52.4375 44.5031 51.95 42.0913C51.8181 41.4369 51.585 40.8006 51.3581 40.17C51.2562 39.8856 51.2493 39.6862 51.435 39.4212C53.0443 37.1231 54.4193 34.685 55.6981 32.1906C55.7487 32.0925 55.8006 31.9944 55.8893 31.8894C56.3037 34.0456 56.9275 36.1238 58.045 38.0094C57.475 38.5588 56.9106 39.0569 56.4 39.6056C55.2756 40.8144 54.3006 42.1269 53.7918 43.7275C53.5731 44.4175 53.405 45.1188 53.5025 45.8556C53.6537 47 54.5912 47.7437 55.7168 47.4831C58.1256 46.9256 60.205 45.7906 61.7243 43.78C62.7468 42.4262 62.84 40.9162 62.4118 39.3344C62.2943 38.9044 62.155 38.4812 62.005 37.9881C62.5993 37.8037 63.1787 37.5825 63.7781 37.4456C66.89 36.7356 69.9681 36.8594 72.9668 37.9831C74.7175 38.6394 76.1318 39.7375 76.9706 41.465C77.995 43.5769 77.4287 45.5806 75.4381 46.9156C75.2525 47.04 75.04 47.1381 74.8862 47.2937C74.7918 47.3894 74.735 47.5806 74.7581 47.7125C74.7712 47.7894 74.9743 47.8856 75.0912 47.8844C75.7456 47.8794 76.2762 47.5363 76.7856 47.1838C78.0618 46.3006 78.9931 45.1125 79.1937 43.5481L79.2331 43.4306L79.185 42.4119C79.1656 42.3531 79.1993 42.295 79.195 42.2506C78.9237 39.9725 77.7068 38.2056 75.9368 36.8206C73.8868 35.2175 71.4662 34.5575 68.9062 34.4531C66.82 34.3681 64.7693 34.6781 62.8031 35.3925C62.2425 35.5956 61.6868 35.8362 61.1231 36.0631C61.0475 35.9262 60.9662 35.795 60.8993 35.6594C60.3206 34.4744 59.6193 33.3419 59.4643 31.9831C59.3543 31.0181 59.2193 30.0544 59.4487 29.1C59.6693 28.1819 59.9568 27.2794 60.2275 26.3738C60.3668 25.9075 60.2687 25.6463 59.8237 25.4363C59.6687 25.3631 59.5 25.2994 59.3325 25.275C58.2387 25.1162 57.16 25.2069 56.1006 25.515C55.7256 25.6244 55.4531 25.8344 55.37 26.2494C55.3225 26.4875 55.2256 26.7156 55.1581 26.9506C54.8812 27.9275 54.685 28.9231 54.2375 29.8537C53.1162 32.1881 51.8362 34.4344 50.5262 36.6644C50.3843 36.905 50.235 37.1412 50.0562 37.4331C49.5962 36.4706 49.1056 35.6069 48.9568 34.5944C48.7887 33.4494 48.6562 32.3063 48.9412 31.17C49.1531 30.3225 49.43 29.4906 49.685 28.6544C49.8056 28.2569 49.75 28.0481 49.39 27.8387C49.2081 27.7331 49.0025 27.6394 48.7975 27.6087C47.6631 27.4406 46.5456 27.5287 45.4512 27.8825C45.1118 27.9925 44.9337 28.2119 44.83 28.5619C44.525 29.5944 44.265 30.6519 43.8368 31.6337C42.1031 35.6087 40.3193 39.5631 38.5375 43.5169C38.1656 44.3425 37.73 45.1394 37.3106 45.9431C37.2043 46.1469 37.0493 46.3263 36.9168 46.5175C36.8106 46.3919 36.7693 46.3056 36.77 46.2194C36.7731 45.7112 36.7125 45.1881 36.8093 44.6969C37.1025 43.2106 37.44 41.7325 37.7956 40.26C38.0893 39.0438 38.4312 37.8388 38.7568 36.6306C38.8662 36.2263 38.8681 35.8481 38.5775 35.5081C38.0893 34.9388 37.0693 34.8137 36.4643 35.2525L36.1968 35.4038L36.2487 34.9725C36.3762 34.0481 36.4018 33.1269 36.1481 32.2162C35.8318 31.0812 35.0218 30.4281 33.8443 30.4644C33.2956 30.4812 32.7193 30.575 32.2112 30.775C30.0743 31.6125 28.4312 33.0956 27.0325 34.88C26.9056 35.0419 26.7381 35.1894 26.5593 35.2887C24.7512 36.2912 22.9375 37.2812 21.1243 38.275L19.1062 39.3806C18.565 38.8644 18.0731 38.3287 17.515 37.8744C15.8106 36.4844 14.0787 35.1288 12.3625 33.7544C10.8412 32.5363 9.36747 31.2675 8.23997 29.6544C7.40122 28.4544 6.86059 27.1412 6.80872 25.6575C6.74309 23.7669 7.27934 22.0394 8.24184 20.4312C9.47309 18.3737 11.1525 16.7225 12.9987 15.2269C14.9518 13.6456 17.0643 12.3031 19.2537 11.0775C22.3168 9.36312 25.4675 7.84563 28.8456 6.84375C32.3093 5.81625 35.8237 5.22812 39.4487 5.63812C40.8737 5.79937 42.2575 6.12563 43.5281 6.8225C44.5012 7.35563 45.2993 8.05375 45.6706 9.145C46.0368 10.2188 46.0256 11.3069 45.7718 12.3975C45.2562 14.6062 44.0468 16.4269 42.525 18.0538C40.0287 20.7206 36.9837 22.5363 33.5556 23.7356C31.5775 24.4275 29.5425 24.8619 27.4525 25.0375C25.7468 25.1806 24.0768 25.0294 22.4618 24.4362C21.3925 24.0431 20.4612 23.4419 19.7125 22.5694C19.5787 22.4131 19.4075 22.2438 19.1581 22.39C18.9137 22.5338 18.8706 22.7663 18.9525 23.0019C19.0893 23.3931 19.2156 23.8006 19.4287 24.1506C19.9643 25.0287 20.7456 25.6656 21.6056 26.2119C23.2575 27.2625 25.1037 27.6156 27.0181 27.6975C29.9231 27.8231 32.7575 27.3894 35.5518 26.61C39.5412 25.4975 43.01 23.5325 45.7918 20.4325C48.1081 17.8513 49.7625 14.9381 50.1168 11.4206C50.29 9.70375 50.1056 8.02188 49.3018 6.45563C48.43 4.75875 47.0437 3.49688 45.3862 2.6275C42.9725 1.36188 40.3675 0.625 37.6787 0.625H34.985C31.7287 0.625 28.5806 1.55813 25.5206 2.67125C23.2043 3.51438 20.9331 4.50937 18.7281 5.61062C13.9262 8.01 9.45434 10.9031 5.78122 14.8813C3.95122 16.8631 2.40184 19.05 1.51059 21.625C1.24997 22.3787 1.00247 23.1869 0.816216 23.9663L0.761841 25.0975ZM18.2156 46.4744C18.0075 49.2613 16.7443 51.5206 14.68 53.3506C13.5187 54.3794 12.1868 55.1119 10.6356 55.3694C10.0731 55.4625 9.49747 55.485 8.95184 55.2519C8.17372 54.9194 7.99934 54.2287 7.98434 53.4931C7.96122 52.3206 8.37184 51.2606 8.93497 50.2519C9.66997 48.9369 10.7475 47.9344 11.8981 46.9981C13.7106 45.5225 15.6768 44.2738 17.6906 43.095L17.8425 43.0325C18.1537 44.1825 18.3018 45.3181 18.2156 46.4744ZM33.9393 34.3625C33.7925 35.2525 33.6087 36.1431 33.3487 37.0056C32.45 39.9912 31.2956 42.8844 30.0475 45.7387C29.8168 46.2669 29.4812 46.7487 29.1893 47.2494C29.1443 47.3269 29.0775 47.3937 29.0125 47.4581C28.6512 47.815 28.3087 47.7962 28.1262 47.3294C27.9137 46.7869 27.7831 46.2063 27.6706 45.6319C27.595 45.2463 27.6131 44.8412 27.5893 44.4462C27.6137 41.6375 28.4706 39.085 29.9243 36.7088C30.5237 35.7288 31.1762 34.795 32.1731 34.175C32.4793 33.9844 32.8231 33.8312 33.17 33.7337C33.7012 33.5844 34.0275 33.83 33.9393 34.3625ZM44.6668 48.03L48.5225 43.5281C48.6831 45.2 45.8412 48.5375 44.6668 48.03ZM56.9812 45.0006C56.7087 45.1569 56.4118 45.2694 56.1325 45.4138C55.8768 45.5463 55.7925 45.4125 55.785 45.1925C55.78 45.0431 55.8018 44.8869 55.8431 44.7419C56.3637 42.9056 57.3218 41.3381 58.7475 40.0631L58.8475 40.0119C59.5256 41.9087 58.7418 43.9919 56.9812 45.0006Z" fill="#4D2994"/>
</svg>
