<svg width="71" height="71" viewBox="0 0 71 71" fill="none" xmlns="http://www.w3.org/2000/svg">
<path d="M40.1248 69.9999C40.2298 69.7624 40.4948 69.5974 40.6873 69.3974C43.6248 66.3174 46.5873 63.2649 49.4848 60.1474C50.3915 59.31 51.0921 58.2742 51.5319 57.121C51.9717 55.9678 52.1387 54.7284 52.0198 53.4999C51.9288 52.9739 51.8095 52.4531 51.6623 51.9399C50.8723 52.6899 50.1373 53.3724 49.3973 54.0599C48.2473 55.1299 47.1023 56.2049 45.9423 57.2624C45.2583 57.9599 44.3788 58.4334 43.42 58.6204C42.4612 58.8074 41.4683 58.6992 40.5723 58.3099C39.6653 57.9767 38.8762 57.3845 38.3028 56.6067C37.7295 55.8289 37.3972 54.8999 37.3473 53.9349C37.3204 53.8108 37.2845 53.6888 37.2398 53.5699C36.3573 54.3199 35.5123 55.0099 34.6748 55.7199L17.2673 70.4699C17.1473 70.5724 17.0173 70.6999 16.9048 70.7999H40.1123L40.0773 70.7774C39.9523 70.6899 40.0173 70.2299 40.1248 69.9999Z" fill="#4D2994"/>
<path d="M15.8424 70C16.0488 69.7312 16.2979 69.4981 16.5799 69.31L40.6699 48.8725C42.3132 47.4775 43.949 46.075 45.5774 44.665C45.7786 44.5247 45.9362 44.3307 46.0324 44.105C46.4219 42.4078 46.4771 40.6509 46.1949 38.9325C45.9449 39.1075 45.8099 39.1825 45.6949 39.305C43.7224 41.07 41.7599 42.85 39.7774 44.605C39.1206 45.266 38.2712 45.7017 37.3512 45.8495C36.4312 45.9973 35.4881 45.8496 34.6574 45.4275C33.8099 45.0274 33.1006 44.3842 32.6197 43.5798C32.1389 42.7753 31.9084 41.8459 31.9574 40.91C31.9574 40.6975 31.9574 40.4875 31.9574 40.1C31.5949 40.365 31.3299 40.5425 31.0824 40.7425C21.4407 48.4625 11.8007 56.1767 2.16236 63.885C1.72736 64.2325 1.20736 65.0075 0.637364 64.255C0.0673636 63.5025 0.934863 63.1925 1.37236 62.8425C11.6474 54.5975 21.9274 46.36 32.2124 38.13C33.8874 36.7875 33.9974 36.225 32.9074 34.0925L32.2574 34.7025C30.4749 36.36 28.6724 37.995 26.9174 39.68C26.1975 40.3744 25.2958 40.851 24.3166 41.0549C23.3374 41.2587 22.3204 41.1813 21.3833 40.8318C20.4461 40.4823 19.6269 39.8749 19.0203 39.0796C18.4136 38.2844 18.0443 37.3337 17.9549 36.3375C17.6224 36.5875 17.3349 36.77 17.0624 36.9825L1.81236 48.8025C1.54934 49.0605 1.24939 49.2779 0.922363 49.4475C0.675547 49.5221 0.410507 49.5089 0.172363 49.41V70.8125H15.8124C15.7542 70.684 15.7267 70.5437 15.7319 70.4028C15.7371 70.2618 15.7749 70.1239 15.8424 70V70Z" fill="#4D2994"/>
<path d="M58.0923 2.0575C57.6673 3.45 57.2548 4.845 56.8823 6.2525C56.5382 7.24715 56.5782 8.33447 56.9945 9.30112C57.4107 10.2678 58.1732 11.044 59.1323 11.4775C62.0658 13.0195 65.3715 13.7122 68.6773 13.4775V2.295C68.6405 2.04983 68.6541 1.79974 68.7173 1.56C68.7873 1.42439 68.8756 1.29905 68.9798 1.1875H58.0823C58.2498 1.3825 58.1923 1.725 58.0923 2.0575Z" fill="#4D2994"/>
<path d="M36.2052 26.08C36.1534 27.3282 35.7168 28.5298 34.9552 29.52C32.2327 33.0344 29.1063 36.2163 25.6402 39C25.0813 39.5174 24.3728 39.8445 23.6165 39.9343C22.8602 40.0241 22.0948 39.8721 21.4302 39.5C20.7687 39.2174 20.211 38.7369 19.8336 38.1245C19.4563 37.5122 19.2778 36.7979 19.3227 36.08C19.4028 35.1983 19.7689 34.3669 20.3652 33.7125C24.2411 30.0168 28.4404 26.6759 32.9127 23.73C33.2056 23.5003 33.5633 23.3686 33.9353 23.3533C34.3072 23.338 34.6745 23.4401 34.9852 23.645C35.3936 23.8986 35.7238 24.2604 35.9392 24.6902C36.1545 25.12 36.2466 25.6011 36.2052 26.08Z" fill="#4D2994"/>
<path d="M33.2101 41.2326C33.152 40.68 33.223 40.1215 33.4173 39.6009C33.6117 39.0804 33.9241 38.612 34.3301 38.2326C38.125 34.7324 42.1966 31.5445 46.5051 28.7001C46.6351 28.6176 46.7551 28.5351 46.8976 28.4501C47.2739 28.1784 47.7299 28.0396 48.1938 28.0554C48.6577 28.0713 49.1031 28.2409 49.4601 28.5376C49.8054 28.8302 50.0498 29.2241 50.1584 29.6635C50.267 30.1029 50.2344 30.5654 50.0651 30.9851C49.52 32.8006 48.514 34.444 47.1451 35.7551C44.3826 38.5051 41.5151 41.1651 38.6451 43.8051C38.2105 44.2521 37.6395 44.5418 37.0222 44.6287C36.4049 44.7156 35.7762 44.5947 35.2351 44.2851C34.6665 43.9897 34.1823 43.5545 33.8281 43.0205C33.4739 42.4866 33.2612 41.8713 33.2101 41.2326Z" fill="#4D2994"/>
<path d="M51.2499 42.885C50.5499 43.635 49.8299 44.35 49.1574 45.1175C48.9552 45.4141 48.7874 45.7329 48.6574 46.0675C49.0274 46.1775 49.4599 46.4675 49.7599 46.365C51.2874 45.8525 52.7774 45.2375 54.4549 44.59C54.0899 45.43 53.8149 46.205 53.4274 46.915C51.831 49.5978 49.8318 52.0194 47.4999 54.095C46.6132 54.95 45.6924 55.7675 44.7374 56.5475C44.2316 56.9672 43.6235 57.245 42.9752 57.3525C42.3268 57.4601 41.6615 57.3935 41.0474 57.1595C40.4332 56.9255 39.8923 56.5326 39.4798 56.021C39.0673 55.5093 38.7982 54.8973 38.6999 54.2475C38.6598 53.8862 38.6917 53.5206 38.7939 53.1717C38.896 52.8228 39.0663 52.4976 39.2949 52.215C42.6969 48.5206 46.585 45.3054 50.8524 42.6575C50.9043 42.6374 50.9592 42.6264 51.0149 42.625L51.2499 42.885Z" fill="#4D2994"/>
<path d="M56.9849 32.9275L61.2624 13.9275L64.2624 14.63L62.7149 19.3325C61.2699 23.7075 59.8074 28.0825 58.3974 32.4625C58.1224 33.2725 57.7624 33.4225 56.9849 32.9275Z" fill="#4D2994"/>
<path d="M52.1548 44.1025C52.6073 42.375 53.0573 40.7775 53.4373 39.1625C53.8076 37.5964 54.512 36.1287 55.5023 34.86C56.1098 34.0625 56.7923 34.38 57.4898 34.5525C58.1348 34.71 58.2973 35.1825 58.3248 35.8025C58.4265 37.5171 57.9043 39.2105 56.8548 40.57C55.6053 42.1191 53.9901 43.333 52.1548 44.1025V44.1025Z" fill="#4D2994"/>
</svg>
