<svg width="80" height="80" viewBox="0 0 80 80" fill="none" xmlns="http://www.w3.org/2000/svg">
<path d="M20 26.6667C22.666 8.89 29.334 0 40 0C56 0 58 20 66 23.3333C71.334 25.5567 76 22.2233 80 13.3333C77.334 31.11 70.666 40 60 40C44 40 42 20 34 16.6667C28.666 14.4433 24 17.7767 20 26.6667ZM0 66.6667C2.666 48.89 9.334 40 20 40C36 40 38 60 46 63.3333C51.334 65.5567 56 62.2233 60 53.3333C57.334 71.11 50.666 80 40 80C24 80 22 60 14 56.6667C8.666 54.4433 4 57.7767 0 66.6667Z" fill="#4D2994"/>
</svg>
